<svg width="21" height="20" viewBox="0 0 21 20" fill="none" xmlns="http://www.w3.org/2000/svg">
<path d="M21 6.31579C21.0001 6.12476 20.9482 5.93732 20.8498 5.77368L18.0054 1.02105C17.818 0.710359 17.554 0.453234 17.2388 0.274413C16.9236 0.0955912 16.5679 0.00109003 16.2057 0H4.7943C4.0614 0 3.37155 0.391579 2.9946 1.02211L0.15015 5.77368C0.0518171 5.93732 -9.8586e-05 6.12476 1.40547e-07 6.31579C1.40547e-07 7.37368 0.4053 8.33053 1.05 9.07158V18.9474C1.05 19.2265 1.16062 19.4943 1.35754 19.6917C1.55445 19.8891 1.82152 20 2.1 20H10.5C10.7785 20 11.0455 19.8891 11.2425 19.6917C11.4394 19.4943 11.55 19.2265 11.55 18.9474V13.6842H15.75V18.9474C15.75 19.2265 15.8606 19.4943 16.0575 19.6917C16.2545 19.8891 16.5215 20 16.8 20H18.9C19.1785 20 19.4455 19.8891 19.6425 19.6917C19.8394 19.4943 19.95 19.2265 19.95 18.9474V9.07158C20.5947 8.33053 21 7.37368 21 6.31579ZM18.8832 6.58C18.8186 7.08832 18.5715 7.55564 18.188 7.8945C17.8046 8.23336 17.3111 8.42055 16.8 8.42105C15.6418 8.42105 14.7 7.47684 14.7 6.31579C14.7 6.24421 14.6737 6.18105 14.659 6.11368L14.68 6.10947L13.881 2.10526H16.2057L18.8832 6.58ZM8.40735 6.38421L9.25995 2.10526H11.739L12.5926 6.38421C12.5559 7.51368 11.634 8.42105 10.5 8.42105C9.366 8.42105 8.4441 7.51368 8.40735 6.38421ZM4.7943 2.10526H7.119L6.321 6.10947L6.342 6.11368C6.32625 6.18105 6.3 6.24421 6.3 6.31579C6.3 7.47684 5.35815 8.42105 4.2 8.42105C3.68885 8.42055 3.19539 8.23336 2.81196 7.8945C2.42853 7.55564 2.1814 7.08832 2.1168 6.58L4.7943 2.10526ZM8.4 14.7368H4.2V11.5789H8.4V14.7368Z" fill="#999999"/>
</svg>
